<svg xmlns="http://www.w3.org/2000/svg" width="1280"
  height="168" viewBox="0 0 1280 168" role="img"
  aria-labelledby="title desc">
  <title id="title">ReNova</title>
  <desc id="desc">Second-hand marketplace with listings, offers, orders and reviews.</desc>
  <defs>
    <pattern id="grid" width="36" height="36" patternUnits="userSpaceOnUse">
      <path d="M36 0H0V36" fill="none" stroke="#C2410C" stroke-opacity=".055"/>
    </pattern>
    <linearGradient id="fade" x1="0" x2="1">
      <stop offset="0" stop-color="#C2410C" stop-opacity=".16"/>
      <stop offset=".55" stop-color="#C2410C" stop-opacity=".035"/>
      <stop offset="1" stop-color="#C2410C" stop-opacity="0"/>
    </linearGradient>
  </defs>
  <rect x="1" y="1" width="1278" height="166" rx="18"
    fill="#FBFCFB" stroke="#E3E8E6"/>
  <rect x="2" y="2" width="1276" height="164" rx="17"
    fill="url(#grid)" opacity=".72"/>
  <rect x="2" y="2" width="1276" height="3" rx="1.5" fill="url(#fade)"/>
  <line x1="112" y1="1" x2="112" y2="166" stroke="#E3E8E6"/><line x1="860" y1="1" x2="860" y2="166" stroke="#E3E8E6"/><text x="56" y="91" fill="#5E6B66" font-size="13" font-weight="600" font-family="Consolas,monospace" text-anchor="middle">03 / 03</text><text x="153" y="61" fill="#0E1512" font-size="27" font-weight="750" font-family="Segoe UI,Arial,sans-serif" text-anchor="start">ReNova ↗</text><text x="153" y="94" fill="#5E6B66" font-size="17" font-weight="400" font-family="Segoe UI,Arial,sans-serif" text-anchor="start">Second-hand marketplace with listings, offers, orders and reviews.</text><text x="153" y="128" fill="#C2410C" font-size="12" font-weight="600" font-family="Consolas,monospace" text-anchor="start">FULL-STACK · MARKETPLACE · VUE</text><line x1="957" y1="84" x2="1195" y2="84" stroke="#E3E8E6"/><rect x="900" y="60" width="96" height="48" rx="10" fill="#FFFFFF" stroke="#E3E8E6"/><text x="948" y="88" fill="#5E6B66" font-size="11" font-weight="600" font-family="Consolas,monospace" text-anchor="middle">LIST</text><rect x="1020" y="60" width="96" height="48" rx="10" fill="#FFFFFF" stroke="#E3E8E6"/><text x="1068" y="88" fill="#5E6B66" font-size="11" font-weight="600" font-family="Consolas,monospace" text-anchor="middle">OFFER</text><rect x="1140" y="60" width="96" height="48" rx="10" fill="#FFFFFF" stroke="#C2410C"/><text x="1188" y="88" fill="#C2410C" font-size="11" font-weight="600" font-family="Consolas,monospace" text-anchor="middle">ORDER</text>
</svg>